<svg width="124" height="124" viewBox="0 0 124 124" fill="none" xmlns="http://www.w3.org/2000/svg">
    <path fill-rule="evenodd" clip-rule="evenodd" d="M28.1894 123.939C25.424 123.841 21.8599 123.624 20.24 123.297C17.7672 122.798 15.4319 122.041 13.4899 121.051C11.2082 119.888 9.16319 118.405 7.39739 116.641C5.62755 114.875 4.13797 112.828 2.97046 110.543C1.98342 108.611 1.22674 106.29 0.725259 103.832C0.391716 102.195 0.171124 98.6047 0.0711247 95.8215C0.030573 94.6839 0.00976637 93.2117 0.00976637 92.5328L0 31.4768C0 30.8006 0.0205943 29.328 0.0609337 28.1891C0.159234 25.424 0.375581 21.8599 0.702754 20.24C1.2019 17.7674 1.95922 15.4319 2.94881 13.4899C4.11185 11.208 5.59528 9.1634 7.35832 7.39739C9.12476 5.62777 11.1719 4.13818 13.4568 2.97046C15.3886 1.98363 17.7096 1.22674 20.1682 0.725259C21.8045 0.391716 25.3953 0.171124 28.1785 0.071337C29.3157 0.030573 30.7881 0.00976637 31.467 0.00976637L92.523 0C93.1994 0 94.672 0.020382 95.8104 0.0609337C98.5758 0.159447 102.14 0.375581 103.76 0.702754C106.233 1.20211 108.568 1.95943 110.51 2.94881C112.792 4.11185 114.837 5.59549 116.602 7.35832C118.372 9.12498 119.862 11.1717 121.029 13.4568C122.016 15.3886 122.773 17.7094 123.275 20.1682C123.608 21.8045 123.829 25.3955 123.929 28.1785C123.969 29.3159 123.99 30.7881 123.99 31.467L124 92.523C124 93.1994 123.979 94.672 123.939 95.8106C123.84 98.5758 123.624 102.14 123.297 103.76C122.798 106.233 122.041 108.568 121.051 110.51C119.888 112.792 118.404 114.837 116.642 116.603C114.875 118.372 112.828 119.862 110.543 121.029C108.611 122.016 106.29 122.773 103.832 123.275C102.195 123.608 98.6045 123.829 95.8215 123.928C94.6839 123.969 93.2117 123.99 92.5328 123.99L31.4768 124C30.8004 124 29.3278 123.979 28.1894 123.939Z" fill="#1DA1F2"/>
    <mask id="mask0_7_271" style="mask-type:luminance" maskUnits="userSpaceOnUse" x="0" y="0" width="124" height="124">
        <path fill-rule="evenodd" clip-rule="evenodd" d="M28.1894 123.939C25.424 123.841 21.8599 123.624 20.24 123.297C17.7672 122.798 15.4319 122.041 13.4899 121.051C11.2082 119.888 9.16319 118.405 7.39739 116.641C5.62755 114.875 4.13797 112.828 2.97046 110.543C1.98342 108.611 1.22674 106.29 0.725259 103.832C0.391716 102.195 0.171124 98.6047 0.0711247 95.8215C0.030573 94.6839 0.00976637 93.2117 0.00976637 92.5328L0 31.4768C0 30.8006 0.0205943 29.328 0.0609337 28.1891C0.159234 25.424 0.375581 21.8599 0.702754 20.24C1.2019 17.7674 1.95922 15.4319 2.94881 13.4899C4.11185 11.208 5.59528 9.1634 7.35832 7.39739C9.12476 5.62777 11.1719 4.13818 13.4568 2.97046C15.3886 1.98363 17.7096 1.22674 20.1682 0.725259C21.8045 0.391716 25.3953 0.171124 28.1785 0.071337C29.3157 0.030573 30.7881 0.00976637 31.467 0.00976637L92.523 0C93.1994 0 94.672 0.020382 95.8104 0.0609337C98.5758 0.159447 102.14 0.375581 103.76 0.702754C106.233 1.20211 108.568 1.95943 110.51 2.94881C112.792 4.11185 114.837 5.59549 116.602 7.35832C118.372 9.12498 119.862 11.1717 121.029 13.4568C122.016 15.3886 122.773 17.7094 123.275 20.1682C123.608 21.8045 123.829 25.3955 123.929 28.1785C123.969 29.3159 123.99 30.7881 123.99 31.467L124 92.523C124 93.1994 123.979 94.672 123.939 95.8106C123.84 98.5758 123.624 102.14 123.297 103.76C122.798 106.233 122.041 108.568 121.051 110.51C119.888 112.792 118.404 114.837 116.642 116.603C114.875 118.372 112.828 119.862 110.543 121.029C108.611 122.016 106.29 122.773 103.832 123.275C102.195 123.608 98.6045 123.829 95.8215 123.928C94.6839 123.969 93.2117 123.99 92.5328 123.99L31.4768 124C30.8004 124 29.3278 123.979 28.1894 123.939Z" fill="white"/>
    </mask>
    <g mask="url(#mask0_7_271)">
        <path d="M48.2658 97C38.9535 97.0089 29.8354 94.3336 22 89.2935C23.3573 89.4512 24.7226 89.5293 26.0889 89.5273C33.804 89.5397 41.2991 86.9538 47.3698 82.1852C43.7938 82.1169 40.3285 80.9311 37.4584 78.7937C34.5882 76.6562 32.4566 73.6739 31.3616 70.2637C32.4227 70.4694 33.501 70.5732 34.5817 70.5738C36.1078 70.574 37.6271 70.371 39.0997 69.9701C35.221 69.1855 31.7327 67.0812 29.2266 64.0141C26.7206 60.9471 25.3511 57.1062 25.3504 53.143C25.3504 53.0669 25.3504 52.9962 25.3504 52.9255C27.7288 54.2514 30.3895 54.988 33.1102 55.0737C29.4822 52.6464 26.9147 48.925 25.931 44.6677C24.9473 40.4104 25.6213 35.9377 27.8157 32.1608C32.1145 37.463 37.4782 41.8007 43.5589 44.8926C49.6395 47.9845 56.3013 49.7615 63.1119 50.1083C62.2449 46.4233 62.6181 42.5547 64.1736 39.1043C65.7291 35.6538 68.3796 32.815 71.7128 31.0295C75.046 29.244 78.875 28.6119 82.604 29.2316C86.333 29.8513 89.7529 31.688 92.3318 34.4559C96.1614 33.6934 99.8338 32.2847 103.192 30.2899C101.913 34.2643 99.2364 37.6385 95.6605 39.7858C99.0571 39.3746 102.373 38.4581 105.5 37.0665C103.199 40.5137 100.302 43.5229 96.9474 45.9531C96.9855 46.6874 97.0017 47.427 97.0017 48.1721C97.0017 70.8457 79.7609 97 48.2441 97" fill="white"/>
    </g>
</svg>
